<svg xmlns="http://www.w3.org/2000/svg" viewBox="0 0 1569.48 548.01"><title>Recurso 2</title><g id="Capa_2" data-name="Capa 2"><g id="Capa_1-2" data-name="Capa 1"><path d="M1217.32,408.76l2.65,10h-5.38Zm-288.6,10h5.38l-2.65-10Zm335.36-11.11h-7v6.42h7c.61,0,.91-.26.91-.87V408.5C1265,407.89,1264.69,407.63,1264.08,407.63Zm39.48-174.38c-20.43,0-33.84,12.29-33.84,31,0,18.51,13.41,31,33.84,31s33.68-12.45,33.68-31C1337.24,245.54,1324,233.25,1303.56,233.25ZM1569.48,0V548h-970V0ZM1307.65,114l-23.16,21.66.18.24h13.52l16.46-15.38,16.46,15.38h13.64l.18-.24-23.22-21.72,22.5-21-.17-.24h-13.53l-15.8,14.72-15.8-14.72h-13.64l-.18.24ZM1192,135.86h11V107.79l17.36,28.07H1231l17.35-28.07v28.07h11V92.65h-13l-20.65,33-20.64-33h-13Zm-206.08-43L1011.27,121v14.84h11.37V121L1048,92.89l-.18-.24h-12.93l-18,20.29-17.9-20.29h-13Zm-83.72,8.56h25.38v34.41h11.37V101.45h25.43v-8.8H902.18Zm-93.71,34.41h11V107.79l17.35,28.07h10.65l17.36-28.07v28.07h11V92.65H862.81l-20.64,33-20.65-33h-13Zm95,264.86H882.61V432h7.3V419.7h10.81v-6.91H889.91v-5.16h13.54ZM917,207.15H798.52V320.48h40.86v-40.7h74.87V252.33H839.38V235.41H917ZM945.47,432l-9.72-31.26h-8.51L917.52,432h7.55l1.74-6.34h9.11l1.7,6.34Zm43.11-31.26h-6.86v19.37l-10.07-19.37h-7.72V432h6.86V412.66L980.86,432h7.72Zm76.84,13.68h-30.6V421h30.6Zm.79-207.25h-40.87v58.42c0,16.6-10,27.3-27.29,27.3-18.36,0-27.46-10.54-27.46-27.3V207.15H929.73V270c0,32.89,24.26,54.28,68.32,54.28s68.16-21.07,68.16-53.8Zm80.57,193.57h-7.47l-3.39,21.45-5.29-21.45H1125l-5.25,21.45-3.38-21.45h-7.82L1116,432h7.12l4.65-18.75,4.68,18.75h6.78Zm39.37,0h-20.84V432h20.84v-6.9h-13.54v-5.6h10.81v-7h-10.81v-4.9h13.54ZM1231.34,432l-9.72-31.26h-8.51L1203.39,432h7.55l1.74-6.34h9.11l1.7,6.34Zm3.74-111.5-52.35-57.62,51.08-55.71h-48l-23.14,28.1a61.94,61.94,0,0,0-6.07,7.82h-.64a41.65,41.65,0,0,0-6.06-7.82l-23-28.1h-48l50.92,55.71-52.35,57.62h48.52l22-27c3.51-4,6.86-7.66,8.14-10.06h.32c1.12,2.4,4.47,6.07,8,10.06l22.19,27ZM1273.24,432l-4.74-11.55a5.92,5.92,0,0,0,3.78-5.73v-7.85a5.91,5.91,0,0,0-6.12-6.13h-16.37V432h7.3V420.87H1261l4.47,11.11Zm107.1-167.76c0-37-29.85-60.5-76.78-60.5-47.09,0-76.94,23.46-76.94,60.5s29.85,60.49,76.94,60.49C1350.49,324.71,1380.34,301.25,1380.34,264.22ZM152.9,297.48c1.12,2.51,2.94,5.22,5.55,6.38s4.51-1.74,5.44-3.67c1.27-2.64,2.05-5.53,3.12-8.25a155.37,155.37,0,0,1,7.44-16.17c1.31-2.46,2.57-4.76,2.83-7.61.28-3.24-.53-6.65-1-9.84-1.06-7.23-1.28-14.58-1.62-21.87-.08-1.74,0-3.5.06-5.23.07-2,.27-5.46-.48-7.35-.94-2.37-4.14-4.92-6.81-4.64a5.71,5.71,0,0,0-1.72.47h0c-2.45,1.37-4.25,4.42-5.43,6.89a102.81,102.81,0,0,0-9.53,32.85,121.92,121.92,0,0,0-.16,26.87C151,289.88,151.42,294.18,152.9,297.48ZM350,183.85a65.91,65.91,0,0,0,7.57,4.54c1.23.57,3.31,1.5,4.8,1.09a3.73,3.73,0,0,0,2.18-3c0-1.11-1.56-2.53-2.44-3.45a99.93,99.93,0,0,0-16.15-13.29c-2.06-1.42-4.7-3.46-7.33-4.06a2.79,2.79,0,0,0-1.67,0,3.46,3.46,0,0,0-2,3h0c.07,1.14,1.71,2.59,2.52,3.53C341.17,176.46,345.13,180.76,350,183.85Zm-173.36,24c3.08,1,6.78-.34,9.44-2,3-1.8,5.68-4,8.54-6,5.94-4.09,12-8,18.3-11.48,1.58-.87,3.22-1.63,4.79-2.53a29,29,0,0,0,10.72-9.69c2-3,3.58-6.21,5.57-9.2,1-1.48,2.05-2.91,3.08-4.36a11.47,11.47,0,0,0,1.81-3.55h0c-.2-1.47-2.12-2.27-3.42-2.21-3.8.19-7,1.46-10.45,3-3.22,1.43-6.33,3.06-9.44,4.72-12.24,6.52-22.61,14.14-31.86,24.52a95.81,95.81,0,0,0-9.35,11.71c-.63,1-1.52,2.55-1.31,3.78S175.47,207.49,176.62,207.86Zm6.49,143.85a207.16,207.16,0,0,1-12.18-19.33c-1.25-2.24-2.32-4.56-3.6-6.78a31.82,31.82,0,0,0-4.13-5.44c-.67-.73-3.15-3.37-4.27-3.17a3.26,3.26,0,0,0-1.8,1.7h0a8.88,8.88,0,0,0,.72,3c.44,1.2.94,2.38,1.45,3.56,6,13.81,14.47,25.61,24.61,36.65.76.81,3.13,3.37,4.35,3.31.57,0,1.66-1.28,1.72-1.82a8.72,8.72,0,0,0-.89-2.71C187.63,357.46,185.15,354.6,183.11,351.71ZM0,0H548V548H0ZM139.5,283.45c2.8,33.91,15.17,59,32,78.74,7.43,8.75,15.35,16.89,25.41,23.05,1.38.84,3.3,2.12,4.71,2.28,2.1.23,3.7-1.65,4-3.37.3-1.57-2-3.72-2.78-4.62a21.15,21.15,0,0,1-3.11-4c-1.34-2.66.61-5.16,2.78-6.14,1.72-.79,4.19-.13,6,.34a139.27,139.27,0,0,0,24.49,3.79c4.68.3,9.11.17,12.78,1.34a40,40,0,0,1,9.42,4.72,124.81,124.81,0,0,0,18.34,9.93,17.39,17.39,0,0,1,4.54,2.52c1.4,1.21,3.52,3,3,4.88-.63,2.41-3,3.92-5.47,4.29a52.09,52.09,0,0,1-7.66.42c-5.44,0-10-1.12-14.3-1.85a146,146,0,0,1-19.44-4.72c-1.46-.44-4.8-1.94-6.48-1.43a3.25,3.25,0,0,0-1.43,5.31c1.61,1.63,4.17,2.48,7,3.44a105.6,105.6,0,0,0,16.66,4.3,77.17,77.17,0,0,0,9.6.93c6.66.31,12.42,1.38,19.6,1.34a42.52,42.52,0,0,0,9.68-.84l.3-.09c2.47-.49,6.75-1.65,7.38-4.7a19.59,19.59,0,0,0,.32-2.54,9.11,9.11,0,0,1,.43-2.63c2.06-3.7,7.85-5.55,11.5-7.27,4.74-2.26,9.42-4.74,13.93-7.44,4.34-2.61,8.44-5.6,12.74-8.27,3.53-2.21,7.54-3.67,9.94-7.32,2.14-3.25,1.42-6.38-.34-9.54a31.16,31.16,0,0,1-1.79-3.24,64.45,64.45,0,0,1-2-7c-1.35-4.9-2.86-9.75-4.41-14.58a18.81,18.81,0,0,1-1.31-7,14.67,14.67,0,0,1,2-6.11c2.15-4.05,4.65-7.9,6.88-11.9s4.5-8.08,6.67-12.16,4.07-8.53,6.17-12.77c1.83-3.68,4.37-6.33,8.39-7.53,2.44-.72,5-1.13,7.51-1.62s5.17-1.11,7.78-1.58c4.38-.79,7.14,1.17,8.62,5.19,1.7,4.64,2.46,10.19,3.06,15.09a45,45,0,0,1-.79,16,77.44,77.44,0,0,1-5,13.28c-3.7,8-8.18,16.13-13.78,22.92a30,30,0,0,1-9.57,7.73c-2.11,1-4.41,1.73-6.6,2.53-2.83,1-5.62,2.74-6.72,5.69a5.61,5.61,0,0,0,.26,4.52c.37.8.84,1.45,1.27,2.19s2,3.25,1.45,4.93a7.5,7.5,0,0,1-2,2.94h0c-1.36,1.06-2.89,2.08-4.23,3.07a133.54,133.54,0,0,1-18,10.43c-1.41.71-3.1,1.39-4.8,2.27-1.39.72-3.26,2.1-3.37,3.79a3,3,0,0,0,3.19,3.37c1.45-.07,3.84-1.29,5.47-2a129.35,129.35,0,0,0,32.13-20.27c16.36-14.15,29.4-30.24,37.86-52a137.56,137.56,0,0,0,9.5-50.4,117.3,117.3,0,0,0-.93-14.06c-.33-2.58-.89-3.83-2.36-5.13a5.68,5.68,0,0,0-4-1.6c-.44.06-.87.52-1.51.42-.32,0-.63-.47-.93-.67-1.3-.85-3.44-1.67-4-3.79a22.79,22.79,0,0,1-.42-3.44c-.38-3.47-1.2-7.32-1.09-10.69.15-4.85,3.27-7.45,4.12-11.53a10.55,10.55,0,0,0-.93-6.4,74.62,74.62,0,0,0-5.22-10.43,141,141,0,0,0-28.44-34.24,131,131,0,0,0-38.7-23.9c-14.46-5.73-32.71-10.39-53.25-9.42a168.07,168.07,0,0,0-25,2.87,127,127,0,0,0-56.37,26.66c-20.44,16.77-36.34,37.69-45,65.79a137.16,137.16,0,0,0-5,22.71A127.27,127.27,0,0,0,139.5,283.45Zm208.41-90.62a4.22,4.22,0,0,0-1.82.6,17.38,17.38,0,0,0-4.74,4.89h0c-2.91,4.58-5.31,9.51-8,14.21-1.32,2.3-2.51,4.91-2.35,7.62.16,3.13,2.21,6.19,4,8.66a265.28,265.28,0,0,1,16.74,27.35,32.19,32.19,0,0,0,2.48,4.22c1.69,2.21,3.84,4.79,6.74,5.27a16.72,16.72,0,0,0,5.57-.49c4-.8,8-1.71,12-2.52,4.27-.86,7.86-2.74,8.33-7.45.4-3.94-.18-8.18-.58-12.11a105.37,105.37,0,0,0-1.73-11.33c-1.22-5.68-3.07-13.89-6.79-18.35-5.83-7-13.85-12.65-21.48-17.59C353.63,194.11,351.2,192.47,347.91,192.83Zm-102.68.47c3.92,3.78,7.93,7.46,11.63,11.46,3.12,3.38,7.08,8.17,11.6,9.56a15.78,15.78,0,0,0,5.4.27c3.36-.23,6.3-.15,9.66-.07,5.54.13,11.79.33,14.87.92a4.46,4.46,0,0,1,3.72,5.57c-.94,4.27-7.41,3.38-10.75,3.51-3.62.14-18.82,2.28-21.4,4.47a30.61,30.61,0,0,0-6.58,6.92c-3.86,6.28-7.21,12.88-10.69,19.38-2.6,4.86-5.45,9.7-7.34,14.9-1.54,4.21-2.84,8.35-7.07,10.62-2.49,1.32-5.38,1.08-8,.58-4.41-.81-9-1-13.42-1.49s-9.17-.95-13.76-1.33c-3.44-.3-9.57-1.53-12.79-.46-2.69.89-5,3.82-6.32,6.22a99,99,0,0,0-4.59,10.18c-1.48,3.58-2.81,7.18-4,10.89s-1.91,7.86-1,11.74c.8,3.53,2.68,6.71,4.39,9.87a168.31,168.31,0,0,0,11.36,18.48c4,5.58,8.46,10.68,15.12,13.07a76.13,76.13,0,0,0,11.88,2.75c4.33.78,8.68,1.42,13.07,1.82,3.23.29,8.72.86,11.62-.84,5.67-3.34,8.56-11.17,11.38-16.85,1.65-3.36,3.39-6.69,4.92-10.11,1.39-3.07,2.16-7.06.82-10.27s-2.55-6.21-4.27-9.68c-4.08-8.31-6.77-11.5-11.2-19.63-1.21-2.22-2.22-3.72-2.43-6.33-.32-3.91,2.95-4.77,5.86-2.21a12.27,12.27,0,0,1,2.29,3c2.59,4.12,3.79,5.41,6.34,9.55,3.39,5.51,5.49,9.17,9.3,14.42,2.13,2.92,6.37,5,9.93,6.11,4,1.32,11,.9,15.25.71,5.48-.23,11-.31,16.43-.67,2.7-.17,5.41-.28,8.1-.55a24.87,24.87,0,0,0,6.28-1.29c3.53-1.39,5.84-4.1,7.93-7.15a116.55,116.55,0,0,0,6.17-10.54c2-3.73,3.84-7.52,5.66-11.33s3.73-7.64,5.21-11.65a16.11,16.11,0,0,0,0-12.49,86.32,86.32,0,0,0-5.73-11c-2.07-3.59-4.16-7.18-6.36-10.7a96.47,96.47,0,0,0-6.72-10c-1.54-1.91-3.41-3.49-5-5.31-2.43-2.73-7.24-3.74-8.07-5.19a5.41,5.41,0,0,1-.4-4.91c.67-1.7,5.86-3.22,8.2-6a56.41,56.41,0,0,0,3.59-4.72c2.31-3.44,4.14-7.17,6.1-10.81,1.82-3.39,4.47-7.15,3.4-11.2-.91-3.47-4-6.5-6.5-8.95-5.64-5.64-11.64-10.92-18.57-14.91a31.46,31.46,0,0,0-12-4,104.64,104.64,0,0,0-16.42-.41c-3.71.19-7.39.25-11.07.52h0a58.11,58.11,0,0,0-9.76,1.2c-5.27,1.29-8.52,4.77-11.74,8.87-1.65,2.11-3.26,4.25-4.8,6.45a40.09,40.09,0,0,0-4.12,6.61,7,7,0,0,0,.53,6.63A27.93,27.93,0,0,0,245.23,193.3Z"/></g></g></svg>